<svg id="visual" viewBox="0 0 960 540" width="960" height="540" xmlns="http://www.w3.org/2000/svg" xmlns:xlink="http://www.w3.org/1999/xlink" version="1.1"><rect x="0" y="0" width="960" height="540" fill="#2D3142"></rect><defs><linearGradient id="grad1_0" x1="43.8%" y1="0%" x2="100%" y2="100%"><stop offset="14.444444444444446%" stop-color="#90c2e7" stop-opacity="1"></stop><stop offset="85.55555555555554%" stop-color="#90c2e7" stop-opacity="1"></stop></linearGradient></defs><defs><linearGradient id="grad1_1" x1="43.8%" y1="0%" x2="100%" y2="100%"><stop offset="14.444444444444446%" stop-color="#90c2e7" stop-opacity="1"></stop><stop offset="85.55555555555554%" stop-color="#607591" stop-opacity="1"></stop></linearGradient></defs><defs><linearGradient id="grad1_2" x1="43.8%" y1="0%" x2="100%" y2="100%"><stop offset="14.444444444444446%" stop-color="#2d3142" stop-opacity="1"></stop><stop offset="85.55555555555554%" stop-color="#607591" stop-opacity="1"></stop></linearGradient></defs><defs><linearGradient id="grad2_0" x1="0%" y1="0%" x2="56.3%" y2="100%"><stop offset="14.444444444444446%" stop-color="#90c2e7" stop-opacity="1"></stop><stop offset="85.55555555555554%" stop-color="#90c2e7" stop-opacity="1"></stop></linearGradient></defs><defs><linearGradient id="grad2_1" x1="0%" y1="0%" x2="56.3%" y2="100%"><stop offset="14.444444444444446%" stop-color="#607591" stop-opacity="1"></stop><stop offset="85.55555555555554%" stop-color="#90c2e7" stop-opacity="1"></stop></linearGradient></defs><defs><linearGradient id="grad2_2" x1="0%" y1="0%" x2="56.3%" y2="100%"><stop offset="14.444444444444446%" stop-color="#607591" stop-opacity="1"></stop><stop offset="85.55555555555554%" stop-color="#2d3142" stop-opacity="1"></stop></linearGradient></defs><g transform="translate(960, 0)"><path d="M0 432C-45.7 422.6 -91.4 413.2 -126.7 389.9C-162 366.7 -186.9 329.5 -222.2 305.8C-257.5 282.1 -303.3 271.9 -338.2 245.7C-373.1 219.4 -397 177.1 -410.9 133.5C-424.7 89.9 -428.3 44.9 -432 0L0 0Z" fill="#465168"></path><path d="M0 288C-30.5 281.7 -60.9 275.5 -84.5 260C-108 244.4 -124.6 219.7 -148.1 203.9C-171.7 188.1 -202.2 181.3 -225.4 163.8C-248.7 146.3 -264.7 118.1 -273.9 89C-283.1 59.9 -285.6 30 -288 0L0 0Z" fill="#789abc"></path><path d="M0 144C-15.2 140.9 -30.5 137.7 -42.2 130C-54 122.2 -62.3 109.8 -74.1 101.9C-85.8 94 -101.1 90.6 -112.7 81.9C-124.4 73.1 -132.3 59 -137 44.5C-141.6 30 -142.8 15 -144 0L0 0Z" fill="#90c2e7"></path></g><g transform="translate(0, 540)"><path d="M0 -432C46 -429.3 92 -426.7 133.5 -410.9C175 -395 212 -366 241 -331.7C270 -297.4 290.9 -257.7 302.6 -219.8C314.2 -181.9 316.6 -145.7 336.7 -109.4C356.7 -73 394.4 -36.5 432 0L0 0Z" fill="#465168"></path><path d="M0 -288C30.7 -286.2 61.3 -284.5 89 -273.9C116.7 -263.3 141.3 -244 160.7 -221.1C180 -198.3 193.9 -171.8 201.7 -146.6C209.5 -121.3 211.1 -97.2 224.4 -72.9C237.8 -48.7 262.9 -24.3 288 0L0 0Z" fill="#789abc"></path><path d="M0 -144C15.3 -143.1 30.7 -142.2 44.5 -137C58.3 -131.7 70.7 -122 80.3 -110.6C90 -99.1 97 -85.9 100.9 -73.3C104.7 -60.6 105.5 -48.6 112.2 -36.5C118.9 -24.3 131.5 -12.2 144 0L0 0Z" fill="#90c2e7"></path></g></svg>